<svg width="50" height="50" viewBox="0 0 50 50" fill="none" xmlns="http://www.w3.org/2000/svg">
<g filter="url(#filter0_d_1_13)">
<path d="M34 0H16C9.37258 0 4 5.37258 4 12V30C4 36.6274 9.37258 42 16 42H34C40.6274 42 46 36.6274 46 30V12C46 5.37258 40.6274 0 34 0Z" fill="#0D99FF"/>
<path d="M4.04017 31H45.9531C45.979 37.0675 41.0675 42 34.9999 42H15.0001C8.9314 42 4.018 37.0686 4.04017 31Z" fill="#0A0A0A"/>
<path d="M22 12V22.9987L17.6255 23L12 22.9987V12" stroke="white" stroke-width="3.2" stroke-linecap="round" stroke-linejoin="round"/>
<path d="M38 23H27.0013L27 18.188L27.0013 12H38" stroke="#0A0A0A" stroke-width="3.2" stroke-linecap="round" stroke-linejoin="round"/>
</g>
<defs>
<filter id="filter0_d_1_13" x="0" y="0" width="50" height="50" filterUnits="userSpaceOnUse" color-interpolation-filters="sRGB">
<feFlood flood-opacity="0" result="BackgroundImageFix"/>
<feColorMatrix in="SourceAlpha" type="matrix" values="0 0 0 0 0 0 0 0 0 0 0 0 0 0 0 0 0 0 127 0" result="hardAlpha"/>
<feOffset dy="4"/>
<feGaussianBlur stdDeviation="2"/>
<feComposite in2="hardAlpha" operator="out"/>
<feColorMatrix type="matrix" values="0 0 0 0 0 0 0 0 0 0 0 0 0 0 0 0 0 0 0.12 0"/>
<feBlend mode="normal" in2="BackgroundImageFix" result="effect1_dropShadow_1_13"/>
<feBlend mode="normal" in="SourceGraphic" in2="effect1_dropShadow_1_13" result="shape"/>
</filter>
</defs>
</svg>
