<svg width="230" height="50" viewBox="0 0 230 50" fill="none" xmlns="http://www.w3.org/2000/svg">
<path d="M67.28 36.672C65.012 36.672 63.052 36.238 61.4 35.37C59.748 34.474 58.474 33.2 57.578 31.548C56.71 29.868 56.276 27.88 56.276 25.584V6.138H59.132V25.584C59.132 28.244 59.832 30.288 61.232 31.716C62.66 33.144 64.676 33.858 67.28 33.858C69.884 33.858 71.886 33.144 73.286 31.716C74.714 30.288 75.428 28.244 75.428 25.584V6.138H78.284V25.584C78.284 27.88 77.836 29.868 76.94 31.548C76.072 33.2 74.812 34.474 73.16 35.37C71.536 36.238 69.576 36.672 67.28 36.672ZM88.6149 36C87.3549 36 86.3609 35.692 85.6329 35.076C84.9049 34.432 84.5409 33.438 84.5409 32.094V6.18H87.3129V31.884C87.3129 32.416 87.4529 32.822 87.7329 33.102C88.0129 33.382 88.4329 33.522 88.9929 33.522H90.7569V36H88.6149ZM101.212 36C99.3924 36 98.0484 35.58 97.1804 34.74C96.3124 33.872 95.8784 32.556 95.8784 30.792V8.532H98.6504V30.708C98.6504 31.744 98.8744 32.472 99.3224 32.892C99.7984 33.312 100.512 33.522 101.464 33.522H104.404V36H101.212ZM92.3924 16.218V13.74H104.404V16.218H92.3924ZM109.112 36V13.74H111.506L111.674 19.83L111.296 19.62C111.66 17.632 112.318 16.162 113.27 15.21C114.222 14.23 115.538 13.74 117.218 13.74H119.15V16.428H117.134C116.014 16.428 115.062 16.68 114.278 17.184C113.494 17.66 112.892 18.346 112.472 19.242C112.08 20.138 111.884 21.202 111.884 22.434V36H109.112ZM128.159 36.504C125.919 36.504 124.127 35.972 122.783 34.908C121.439 33.816 120.767 32.346 120.767 30.498C120.767 28.65 121.355 27.194 122.531 26.13C123.707 25.066 125.429 24.324 127.697 23.904L135.929 22.35C135.929 20.138 135.453 18.514 134.501 17.478C133.549 16.414 132.107 15.882 130.175 15.882C128.467 15.882 127.109 16.288 126.101 17.1C125.093 17.912 124.421 19.06 124.085 20.544L121.145 20.292C121.565 18.136 122.545 16.428 124.085 15.168C125.653 13.88 127.683 13.236 130.175 13.236C132.947 13.236 135.061 14.02 136.517 15.588C137.973 17.156 138.701 19.396 138.701 22.308V31.59C138.701 32.346 138.813 32.864 139.037 33.144C139.289 33.396 139.681 33.522 140.213 33.522H140.885V36C140.773 36.028 140.605 36.042 140.381 36.042C140.185 36.07 139.975 36.084 139.751 36.084C138.883 36.084 138.155 35.93 137.567 35.622C137.007 35.314 136.587 34.81 136.307 34.11C136.055 33.41 135.929 32.444 135.929 31.212L136.265 31.254C136.013 32.234 135.495 33.13 134.711 33.942C133.955 34.726 133.003 35.356 131.855 35.832C130.707 36.28 129.475 36.504 128.159 36.504ZM128.411 34.026C129.951 34.026 131.281 33.718 132.401 33.102C133.521 32.486 134.389 31.66 135.005 30.624C135.621 29.56 135.929 28.37 135.929 27.054V24.828L128.285 26.256C126.689 26.564 125.513 27.04 124.757 27.684C124.029 28.328 123.665 29.182 123.665 30.246C123.665 31.45 124.085 32.388 124.925 33.06C125.765 33.704 126.927 34.026 128.411 34.026Z" fill="#0D99FF"/>
<path d="M156.432 36.672C153.8 36.672 151.49 36.056 149.502 34.824C147.542 33.564 146.016 31.772 144.924 29.448C143.86 27.124 143.328 24.352 143.328 21.132C143.328 17.912 143.86 15.14 144.924 12.816C146.016 10.464 147.542 8.658 149.502 7.398C151.49 6.138 153.8 5.508 156.432 5.508C159.904 5.508 162.634 6.432 164.622 8.28C166.61 10.128 167.898 12.606 168.486 15.714L165.462 15.924C165.042 13.6 164.076 11.752 162.564 10.38C161.08 9.008 159.036 8.322 156.432 8.322C154.388 8.322 152.61 8.84 151.098 9.876C149.586 10.884 148.41 12.354 147.57 14.286C146.73 16.19 146.31 18.472 146.31 21.132C146.31 23.792 146.73 26.074 147.57 27.978C148.41 29.882 149.586 31.338 151.098 32.346C152.61 33.354 154.388 33.858 156.432 33.858C159.148 33.858 161.276 33.116 162.816 31.632C164.384 30.148 165.35 28.132 165.714 25.584L168.738 25.794C168.402 27.978 167.702 29.882 166.638 31.506C165.574 33.13 164.188 34.404 162.48 35.328C160.772 36.224 158.756 36.672 156.432 36.672ZM179.349 36.504C177.109 36.504 175.317 35.972 173.973 34.908C172.629 33.816 171.957 32.346 171.957 30.498C171.957 28.65 172.545 27.194 173.721 26.13C174.897 25.066 176.619 24.324 178.887 23.904L187.119 22.35C187.119 20.138 186.643 18.514 185.691 17.478C184.739 16.414 183.297 15.882 181.365 15.882C179.657 15.882 178.299 16.288 177.291 17.1C176.283 17.912 175.611 19.06 175.275 20.544L172.335 20.292C172.755 18.136 173.735 16.428 175.275 15.168C176.843 13.88 178.873 13.236 181.365 13.236C184.137 13.236 186.251 14.02 187.707 15.588C189.163 17.156 189.891 19.396 189.891 22.308V31.59C189.891 32.346 190.003 32.864 190.227 33.144C190.479 33.396 190.871 33.522 191.403 33.522H192.075V36C191.963 36.028 191.795 36.042 191.571 36.042C191.375 36.07 191.165 36.084 190.941 36.084C190.073 36.084 189.345 35.93 188.757 35.622C188.197 35.314 187.777 34.81 187.497 34.11C187.245 33.41 187.119 32.444 187.119 31.212L187.455 31.254C187.203 32.234 186.685 33.13 185.901 33.942C185.145 34.726 184.193 35.356 183.045 35.832C181.897 36.28 180.665 36.504 179.349 36.504ZM179.601 34.026C181.141 34.026 182.471 33.718 183.591 33.102C184.711 32.486 185.579 31.66 186.195 30.624C186.811 29.56 187.119 28.37 187.119 27.054V24.828L179.475 26.256C177.879 26.564 176.703 27.04 175.947 27.684C175.219 28.328 174.855 29.182 174.855 30.246C174.855 31.45 175.275 32.388 176.115 33.06C176.955 33.704 178.117 34.026 179.601 34.026ZM195.823 36V13.74H198.217L198.385 19.83L198.007 19.62C198.371 17.632 199.029 16.162 199.981 15.21C200.933 14.23 202.249 13.74 203.929 13.74H205.861V16.428H203.845C202.725 16.428 201.773 16.68 200.989 17.184C200.205 17.66 199.603 18.346 199.183 19.242C198.791 20.138 198.595 21.202 198.595 22.434V36H195.823ZM217.64 36.504C215.512 36.504 213.706 36.014 212.222 35.034C210.738 34.026 209.59 32.654 208.778 30.918C207.994 29.154 207.602 27.138 207.602 24.87C207.602 22.602 207.994 20.6 208.778 18.864C209.562 17.1 210.682 15.728 212.138 14.748C213.622 13.74 215.4 13.236 217.472 13.236C219.46 13.236 221.182 13.712 222.638 14.664C224.094 15.616 225.2 16.96 225.956 18.696C226.74 20.432 227.132 22.462 227.132 24.786V25.668H210.5C210.612 28.3 211.298 30.33 212.558 31.758C213.818 33.158 215.512 33.858 217.64 33.858C219.264 33.858 220.594 33.466 221.63 32.682C222.666 31.898 223.38 30.862 223.772 29.574L226.754 29.784C226.194 31.744 225.116 33.354 223.52 34.614C221.924 35.874 219.964 36.504 217.64 36.504ZM210.5 23.19H224.108C223.968 20.81 223.31 19.004 222.134 17.772C220.958 16.512 219.404 15.882 217.472 15.882C215.54 15.882 213.958 16.512 212.726 17.772C211.494 19.032 210.752 20.838 210.5 23.19Z" fill="white"/>
<g filter="url(#filter0_d_1_2)">
<path d="M34 0H16C9.37258 0 4 5.37258 4 12V30C4 36.6274 9.37258 42 16 42H34C40.6274 42 46 36.6274 46 30V12C46 5.37258 40.6274 0 34 0Z" fill="#0D99FF"/>
<path d="M4.04017 31H45.9531C45.979 37.0675 41.0675 42 34.9999 42H15.0001C8.9314 42 4.018 37.0686 4.04017 31Z" fill="white"/>
<path d="M22 12V22.9987L17.6255 23L12 22.9987V12" stroke="#0A0A0A" stroke-width="3.2" stroke-linecap="round" stroke-linejoin="round"/>
<path d="M38 23H27.0013L27 18.188L27.0013 12H38" stroke="white" stroke-width="3.2" stroke-linecap="round" stroke-linejoin="round"/>
</g>
<defs>
<filter id="filter0_d_1_2" x="0" y="0" width="50" height="50" filterUnits="userSpaceOnUse" color-interpolation-filters="sRGB">
<feFlood flood-opacity="0" result="BackgroundImageFix"/>
<feColorMatrix in="SourceAlpha" type="matrix" values="0 0 0 0 0 0 0 0 0 0 0 0 0 0 0 0 0 0 127 0" result="hardAlpha"/>
<feOffset dy="4"/>
<feGaussianBlur stdDeviation="2"/>
<feComposite in2="hardAlpha" operator="out"/>
<feColorMatrix type="matrix" values="0 0 0 0 0 0 0 0 0 0 0 0 0 0 0 0 0 0 0.12 0"/>
<feBlend mode="normal" in2="BackgroundImageFix" result="effect1_dropShadow_1_2"/>
<feBlend mode="normal" in="SourceGraphic" in2="effect1_dropShadow_1_2" result="shape"/>
</filter>
</defs>
</svg>
